<svg width="20" height="20" viewBox="0 0 20 20" fill="none" xmlns="http://www.w3.org/2000/svg">
<g clip-path="url(#clip0_22_679)">
<path fill-rule="evenodd" clip-rule="evenodd" d="M20 10C20 4.47716 15.5229 0 10 0C4.47716 0 0 4.47716 0 10C0 15.5229 4.47716 20 10 20C15.5229 20 20 15.5229 20 10ZM14.9144 7.07359C14.9144 7.88073 14.2611 8.53527 13.4544 8.53714L13.4509 8.53716C12.6426 8.53716 11.9873 7.88189 11.9873 7.07359C11.9873 6.26643 12.6407 5.61189 13.4474 5.61001L13.4509 5.61C14.2592 5.61 14.9144 6.26527 14.9144 7.07359ZM8.0127 7.07359C8.0127 7.88074 7.3593 8.53529 6.55257 8.53714L6.5491 8.53716C5.7408 8.53716 5.08553 7.88189 5.08553 7.07359C5.08553 6.26643 5.73893 5.61187 6.54564 5.61001L6.54911 5.61C7.35743 5.61 8.0127 6.26527 8.0127 7.07359ZM5.98564 11.0864C5.85751 10.6102 5.36761 10.3281 4.89144 10.4562C4.41527 10.5843 4.13314 11.0742 4.26129 11.5504C4.94266 14.0824 7.25366 15.9473 10.0025 15.9473C12.7513 15.9473 15.0623 14.0824 15.7437 11.5504C15.8719 11.0742 15.5897 10.5843 15.1136 10.4562C14.6374 10.3281 14.1475 10.6102 14.0193 11.0864C13.5425 12.8584 11.9235 14.1615 10.0025 14.1615C8.08146 14.1615 6.46251 12.8584 5.98564 11.0864Z" fill="black"/>
</g>
<defs>
<clipPath id="clip0_22_679">
<rect width="20" height="20" fill="white"/>
</clipPath>
</defs>
</svg>
