<svg width="36" height="37" viewBox="0 0 36 37" fill="none" xmlns="http://www.w3.org/2000/svg">
<rect width="36" height="36" fill="white"/>
<path fill-rule="evenodd" clip-rule="evenodd" d="M35.78 18.9091C35.78 17.6327 35.6655 16.4054 35.4527 15.2273H18.5V22.19H28.1873C27.77 24.44 26.5018 26.3464 24.5955 27.6227V32.1391H30.4127C33.8164 29.0054 35.78 24.3909 35.78 18.9091Z" fill="#4285F4"/>
<path fill-rule="evenodd" clip-rule="evenodd" d="M18.5 36.4998C23.36 36.4998 27.4346 34.8879 30.4127 32.1388L24.5955 27.6225C22.9836 28.7025 20.9218 29.3407 18.5 29.3407C13.8118 29.3407 9.84364 26.1743 8.42819 21.9198H2.41455V26.5834C5.37637 32.4661 11.4636 36.4998 18.5 36.4998Z" fill="#34A853"/>
<path fill-rule="evenodd" clip-rule="evenodd" d="M8.42818 21.9201C8.06818 20.8401 7.86364 19.6865 7.86364 18.5001C7.86364 17.3137 8.06818 16.1601 8.42818 15.0801V10.4165H2.41455C1.19545 12.8465 0.5 15.5955 0.5 18.5001C0.5 21.4046 1.19545 24.1537 2.41455 26.5837L8.42818 21.9201Z" fill="#FBBC05"/>
<path fill-rule="evenodd" clip-rule="evenodd" d="M18.5 7.65909C21.1427 7.65909 23.5155 8.56727 25.3809 10.3509L30.5436 5.18818C27.4264 2.28364 23.3518 0.5 18.5 0.5C11.4636 0.5 5.37637 4.53364 2.41455 10.4164L8.42819 15.08C9.84364 10.8255 13.8118 7.65909 18.5 7.65909Z" fill="#EA4335"/>
</svg>
