<svg width="24" height="24" viewBox="0 0 24 24" fill="none" xmlns="http://www.w3.org/2000/svg">
<path fill-rule="evenodd" clip-rule="evenodd" d="M11.5714 0C10.2319 0 8.94727 0.532116 8.00009 1.47929C7.05291 2.42647 6.5208 3.7111 6.5208 5.05061V10.9215C6.5208 12.261 7.05291 13.5456 8.00009 14.4928C8.94727 15.4399 10.2319 15.9721 11.5714 15.9721C12.9109 15.9721 14.1956 15.4399 15.1427 14.4928C16.0899 13.5456 16.622 12.261 16.622 10.9215V5.05061C16.622 3.7111 16.0899 2.42647 15.1427 1.47929C14.1956 0.532116 12.9109 0 11.5714 0ZM10.2857 20.5843V22.663C10.2857 23.3731 10.8613 23.9487 11.5714 23.9487C12.2815 23.9487 12.8571 23.3731 12.8571 22.663V20.5843C17.6286 20.3606 21.4285 16.4211 21.4285 11.5942C21.4285 10.8842 20.8529 10.3085 20.1428 10.3085C19.4327 10.3085 18.8571 10.8842 18.8571 11.5942C18.8571 15.1446 15.9789 18.0228 12.4285 18.0228H11.5948C11.587 18.0226 11.5792 18.0226 11.5714 18.0226C11.5635 18.0226 11.5557 18.0226 11.5479 18.0228H10.7142C7.16383 18.0228 4.28566 15.1446 4.28566 11.5942C4.28566 10.8842 3.71002 10.3085 2.99995 10.3085C2.28987 10.3085 1.71423 10.8842 1.71423 11.5942C1.71423 16.4211 5.5141 20.3606 10.2857 20.5843Z" fill="black"/>
</svg>
